<?xml version="1.0" encoding="UTF-8"?>
<svg width="29px" height="25px" viewBox="0 0 29 25" version="1.1" xmlns="http://www.w3.org/2000/svg" xmlns:xlink="http://www.w3.org/1999/xlink">
    <!-- Generator: Sketch 40.2 (33826) - http://www.bohemiancoding.com/sketch -->
    <title>Combined-Shape</title>
    <desc>Created with Sketch.</desc>
    <defs></defs>
    <g id="Page-1" stroke="none" stroke-width="1" fill="none" fill-rule="evenodd">
        <path d="M17.67708,14.134738 C20.97451,14.134738 23.65786,10.889084 23.65786,6.899362 C23.65786,3.131955 21.19864,0.500382 17.67708,0.500382 C14.15552,0.500382 11.6963,3.131955 11.6963,6.899362 C11.6963,10.888722 14.37965,14.134738 17.67708,14.134738 L17.67708,14.134738 L17.67708,14.134738 Z M17.67708,1.586612 C20.60447,1.586612 22.57163,3.721415 22.57163,6.899362 C22.57163,10.289847 20.37636,13.048509 17.67708,13.048509 C14.9778,13.048509 12.78253,10.289847 12.78253,6.899362 C12.78253,3.721415 14.74969,1.586612 17.67708,1.586612 L17.67708,1.586612 L17.67708,1.586612 Z M18.34475,15.945121 L17.00941,15.945121 C11.00871,15.945121 6.97663,19.381228 6.97663,24.496285 C6.97663,24.796084 7.21994,25.039399 7.51974,25.039399 C7.81954,25.039399 8.06286,24.796084 8.06286,24.496285 C8.06286,19.961999 11.57464,17.031351 17.00941,17.031351 L18.34475,17.031351 C23.78024,17.031351 27.29202,19.961999 27.29202,24.496285 C27.29202,24.796084 27.53534,25.039399 27.83514,25.039399 C28.13494,25.039399 28.37825,24.796084 28.37825,24.496285 C28.37825,19.381228 24.34617,15.945121 18.34475,15.945121 L18.34475,15.945121 Z M4.26003635,8.00901195 L4.26003635,11.7471532 L0.521706521,11.7471532 C0.506156434,11.7464237 0.490580684,11.7464237 0.475030595,11.7471532 C0.200087066,11.7600796 -0.0123311212,11.9934101 0.000556776151,12.2683382 C0.0134446735,12.5432664 0.246759304,12.7557046 0.521706521,12.7428568 L4.26003635,12.7428568 L4.26003635,16.4810231 C4.25749533,16.6605657 4.35183069,16.8275678 4.50691919,16.9180806 C4.66200769,17.0085935 4.85382115,17.0085935 5.00890964,16.9180806 C5.16399814,16.8275678 5.25833351,16.6605657 5.25579249,16.4810231 L5.25579249,12.7428568 L8.99412207,12.7428568 C9.17359247,12.7452678 9.34047138,12.6509085 9.4309098,12.4958817 C9.52134822,12.3408549 9.52134822,12.1491553 9.4309098,11.9941284 C9.34047138,11.8391016 9.17359247,11.7447424 8.99412207,11.7471532 L5.25579249,11.7471532 L5.25579249,8.00901195 C5.25888351,7.86563259 5.19999587,7.72788344 5.09421094,7.63104263 C4.98842601,7.53420182 4.84601829,7.48767514 4.703459,7.50337829 C4.44695109,7.5315642 4.25448229,7.75103584 4.26003635,8.00901195 Z" id="Combined-Shape" fill="#FFFFFF"></path>
    </g>
</svg>