<?xml version="1.0" encoding="utf-8"?>
<!-- Generator: Adobe Illustrator 16.0.0, SVG Export Plug-In . SVG Version: 6.00 Build 0)  -->
<!DOCTYPE svg PUBLIC "-//W3C//DTD SVG 1.1//EN" "http://www.w3.org/Graphics/SVG/1.1/DTD/svg11.dtd">
<svg version="1.1" id="Layer_1" xmlns="http://www.w3.org/2000/svg" xmlns:xlink="http://www.w3.org/1999/xlink" x="0px" y="0px"
	 width="593.42px" height="593.42px" viewBox="2.79 47.965 593.42 593.42" enable-background="new 2.79 47.965 593.42 593.42"
	 xml:space="preserve">
<g>
	<path fill="#FFFFFF" d="M509.708,134.466c-115.335-115.335-305.081-115.335-420.416,0c-115.336,115.335-115.336,305.082,0,420.417
		c115.335,115.336,305.081,115.336,420.416,0C625.044,439.548,625.044,253.522,509.708,134.466z M346.006,432.106L297.64,383.74
		l-48.366,48.366c-11.161,11.162-26.044,11.162-37.205,0c-11.161-11.161-11.161-26.043,0-37.205l48.366-48.366l-48.366-48.367
		c-11.161-11.162-11.161-26.043,0-37.205s26.044-11.162,37.205,0l48.366,48.367l48.366-48.367c11.162-11.162,26.044-11.162,37.205,0
		c11.162,11.162,11.162,26.043,0,37.205l-48.366,48.367l48.366,48.366c11.162,11.162,11.162,26.044,0,37.205
		C375.771,443.269,357.168,443.269,346.006,432.106z"/>
</g>
</svg>
