<?xml version="1.0" encoding="UTF-8" standalone="no"?>
<svg width="22px" height="25px" viewBox="0 0 22 25" version="1.1" xmlns="http://www.w3.org/2000/svg" xmlns:xlink="http://www.w3.org/1999/xlink">
    <!-- Generator: Sketch 40.2 (33826) - http://www.bohemiancoding.com/sketch -->
    <title>Shape</title>
    <desc>Created with Sketch.</desc>
    <defs></defs>
    <g id="Desktop" stroke="none" stroke-width="1" fill="none" fill-rule="evenodd" opacity="0.702658582">
        <g id="07-Sidebar-Settings-Copy" transform="translate(-1075.000000, -123.000000)" fill="#FFFFFF">
            <path d="M1085.67708,137.134738 C1088.97451,137.134738 1091.65786,133.889084 1091.65786,129.899362 C1091.65786,126.131955 1089.19864,123.500382 1085.67708,123.500382 C1082.15552,123.500382 1079.6963,126.131955 1079.6963,129.899362 C1079.6963,133.888722 1082.37965,137.134738 1085.67708,137.134738 L1085.67708,137.134738 Z M1085.67708,124.586612 C1088.60447,124.586612 1090.57163,126.721415 1090.57163,129.899362 C1090.57163,133.289847 1088.37636,136.048509 1085.67708,136.048509 C1082.9778,136.048509 1080.78253,133.289847 1080.78253,129.899362 C1080.78253,126.721415 1082.74969,124.586612 1085.67708,124.586612 L1085.67708,124.586612 Z M1086.34475,138.945121 L1085.00941,138.945121 C1079.00871,138.945121 1074.97663,142.381228 1074.97663,147.496285 C1074.97663,147.796084 1075.21994,148.039399 1075.51974,148.039399 C1075.81954,148.039399 1076.06286,147.796084 1076.06286,147.496285 C1076.06286,142.961999 1079.57464,140.031351 1085.00941,140.031351 L1086.34475,140.031351 C1091.78024,140.031351 1095.29202,142.961999 1095.29202,147.496285 C1095.29202,147.796084 1095.53534,148.039399 1095.83514,148.039399 C1096.13494,148.039399 1096.37825,147.796084 1096.37825,147.496285 C1096.37825,142.381228 1092.34617,138.945121 1086.34475,138.945121 L1086.34475,138.945121 Z" id="Shape"></path>
        </g>
    </g>
</svg>