<?xml version="1.0" encoding="UTF-8"?>
<svg width="78px" height="78px" viewBox="0 0 78 78" version="1.1" xmlns="http://www.w3.org/2000/svg" xmlns:xlink="http://www.w3.org/1999/xlink">
    <!-- Generator: Sketch 40.2 (33826) - http://www.bohemiancoding.com/sketch -->
    <title>Shape</title>
    <desc>Created with Sketch.</desc>
    <defs></defs>
    <g id="Page-1" stroke="none" stroke-width="1" fill="none" fill-rule="evenodd" opacity="0.7">
        <path d="M58.78125,-1.50920942e-14 C58.3333668,0.0484231863 57.9149446,0.246623181 57.59375,0.5625 L5.59375,52.5625 C5.32922495,52.8291341 5.14511721,53.16486 5.0625,53.53125 L0.0625,75.53125 C-0.0925056695,76.1993442 0.105594524,76.9002714 0.587376716,77.3883928 C1.06915891,77.8765142 1.76743675,78.0837595 2.4375,77.9375 L24.4375,72.9375 C24.80389,72.8548828 25.1396159,72.6707751 25.40625,72.40625 L77.40625,20.40625 C77.7859822,20.0305453 77.9996553,19.5185571 77.9996553,18.984375 C77.9996553,18.4501929 77.7859822,17.9382047 77.40625,17.5625 L60.40625,0.5625 C59.9769353,0.139846842 59.379987,-0.0667891066 58.78125,-1.50920942e-14 L58.78125,-1.50920942e-14 Z M59,4.8125 L73.1875,19 L24,68.15625 L9.8125,54 L59,4.8125 L59,4.8125 Z M8.15625,57.96875 L20.03125,69.84375 L4.65625,73.34375 L8.15625,57.96875 L8.15625,57.96875 Z" id="Shape" fill="#FFFFFF"></path>
    </g>
</svg>