<?xml version="1.0" encoding="UTF-8"?>
<svg width="84px" height="84px" viewBox="0 0 84 84" version="1.1" xmlns="http://www.w3.org/2000/svg" xmlns:xlink="http://www.w3.org/1999/xlink">
    <!-- Generator: Sketch 40.2 (33826) - http://www.bohemiancoding.com/sketch -->
    <title>Combined Shape</title>
    <desc>Created with Sketch.</desc>
    <defs></defs>
    <g id="Page-1" stroke="none" stroke-width="1" fill="none" fill-rule="evenodd" fill-opacity="0.704653533">
        <path d="M42,84 C64.766,84 84,64.767 84,42 C84,19.233 64.766,0 42,0 C19.234,0 0,19.233 0,42 C0,64.767 19.234,84 42,84 Z M42,67 C43.104,67 44,66.104 44,65 L44,39 C44,37.896 43.104,37 42,37 C40.896,37 40,37.896 40,39 L40,65 C40,66.104 40.896,67 42,67 Z M42,28 C43.104,28 44,27.104 44,26 L44,21 C44,19.896 43.104,19 42,19 C40.896,19 40,19.896 40,21 L40,26 C40,27.104 40.896,28 42,28 Z M42,4 C62.598,4 80,21.402 80,42 C80,62.598 62.598,80 42,80 C21.402,80 4,62.598 4,42 C4,21.402 21.402,4 42,4 Z" id="Combined-Shape" fill="#FFFFFF"></path>
    </g>
</svg>