<?xml version="1.0" encoding="UTF-8" standalone="no"?>
<svg width="18px" height="24px" viewBox="0 0 18 24" version="1.1" xmlns="http://www.w3.org/2000/svg" xmlns:xlink="http://www.w3.org/1999/xlink">
    <!-- Generator: Sketch 40.2 (33826) - http://www.bohemiancoding.com/sketch -->
    <title>Shape</title>
    <desc>Created with Sketch.</desc>
    <defs></defs>
    <g id="Desktop" stroke="none" stroke-width="1" fill="none" fill-rule="evenodd" opacity="0.69688666">
        <g id="07-Sidebar-Settings-Copy" transform="translate(-1077.000000, -25.000000)" fill="#FFFFFF">
            <path d="M1093.9812,47.3684539 L1091.9609,47.3684539 L1091.9609,45.9542457 C1091.9609,42.8789041 1090.80484,40.0168161 1088.79577,38.1087575 C1088.5264,37.8506084 1088.09989,37.8618322 1087.84174,38.1312052 C1087.58359,38.4005782 1087.59481,38.8270854 1087.86419,39.0852346 C1089.61511,40.746368 1090.61404,43.249292 1090.61404,45.9542457 L1090.61404,47.3684539 L1081.53392,47.3684539 L1081.53392,45.9542457 C1081.53392,42.2391433 1083.46443,38.9281003 1086.33774,37.7271457 C1089.7049,36.3241614 1091.9609,32.519268 1091.9609,28.2654196 L1091.9609,26.8512114 L1093.9812,26.8512114 C1094.35159,26.8512114 1094.65463,26.5481668 1094.65463,26.1777789 C1094.65463,25.8073911 1094.35159,25.5043465 1093.9812,25.5043465 L1078.33512,25.5043465 C1077.96473,25.5043465 1077.66168,25.8073911 1077.66168,26.1777789 C1077.66168,26.5481668 1077.96473,26.8512114 1078.33512,26.8512114 L1080.18706,26.8512114 L1080.18706,28.2654196 C1080.18706,31.3407612 1081.34312,34.2028492 1083.35219,36.1109078 C1083.48688,36.2343704 1083.64401,36.2904898 1083.81237,36.2904898 C1083.99195,36.2904898 1084.17153,36.2231466 1084.30622,36.0772362 C1084.56437,35.8078632 1084.55314,35.381356 1084.28377,35.1232069 C1083.53177,34.4048789 1082.90323,33.506969 1082.45428,32.5080441 L1089.71613,32.5080441 C1088.88556,34.3375357 1087.51625,35.7741916 1085.82144,36.4700718 C1082.45428,37.8730561 1080.19828,41.6779496 1080.19828,45.931798 L1080.19828,47.3460062 L1078.34634,47.3460062 C1077.97595,47.3460062 1077.67291,47.6490508 1077.67291,48.0194386 C1077.67291,48.3898265 1077.97595,48.6928711 1078.34634,48.6928711 L1093.99242,48.6928711 C1094.36281,48.6928711 1094.66585,48.3898265 1094.66585,48.0194386 C1094.66585,47.6490508 1094.35159,47.3684539 1093.9812,47.3684539 L1093.9812,47.3684539 Z M1081.9492,31.1724031 C1081.67983,30.2408215 1081.53392,29.2643444 1081.53392,28.2654196 L1081.53392,26.8512114 L1090.61404,26.8512114 L1090.61404,28.2654196 C1090.61404,29.2755683 1090.46813,30.2632692 1090.20998,31.1724031 L1081.9492,31.1724031 L1081.9492,31.1724031 Z" id="Shape"></path>
        </g>
    </g>
</svg>