<svg version="1.1" id="svg_resize" xmlns="http://www.w3.org/2000/svg" xmlns:xlink="http://www.w3.org/1999/xlink" x="0px" y="0px" width="18" height="18" viewBox="0 0 612 612" style="enable-background:new 0 0 612 612;" xml:space="preserve">
<g>
	<g fill="#FFFFFF">
		<polygon points="318.75,128.316 318.75,314.925 451.631,393.235 464.559,371.28 344.25,299.727 344.25,128.316 		"></polygon>
		<path d="M110.695,433.628H81.651C128.086,524.382,222.539,586.5,331.5,586.5C486.412,586.5,612,460.912,612,306
			c0-154.913-125.588-280.5-280.5-280.5C194.004,25.5,79.611,124.44,55.616,255H0l63.75,76.5L127.5,255H81.6
			C105.238,138.618,208.131,51,331.5,51c140.837,0,255,114.164,255,255c0,140.837-114.163,255-255,255
			C237.175,561,154.785,509.771,110.695,433.628z"></path>
	</g>
</g>
</svg>